<?xml version="1.0" encoding="utf-8"?>
<!-- Generator: Adobe Illustrator 22.1.0, SVG Export Plug-In . SVG Version: 6.00 Build 0)  -->
<svg version="1.1" id="图层_1" xmlns="http://www.w3.org/2000/svg" xmlns:xlink="http://www.w3.org/1999/xlink" x="0px" y="0px"
	 viewBox="0 0 1920 1029" style="enable-background:new 0 0 1920 1029;" xml:space="preserve">
<style type="text/css">
	.st0{fill:url(#SVGID_1_);}
	.st1{fill:url(#SVGID_2_);}
	.st2{fill:url(#SVGID_3_);}
	.st3{fill:url(#SVGID_4_);}
</style>
<g>
	<g>
		
			<linearGradient id="SVGID_1_" gradientUnits="userSpaceOnUse" x1="1479.8242" y1="-1239.251" x2="1974.8094" y2="-1130.5347" gradientTransform="matrix(-1 0 0 -1 2419.4407 -750.9611)">
			<stop  offset="3.572550e-03" style="stop-color:#595C5D"/>
			<stop  offset="0.5423" style="stop-color:#5E6161"/>
			<stop  offset="1" style="stop-color:#595C5D"/>
		</linearGradient>
		<path class="st0" d="M651.6,445.5c-15-4.8-28-11.6-39.1-20.3c-11-8.8-19.6-19.3-25.6-31.6c-6-12.3-9.1-25.9-9.1-40.9
			c0-15,3.1-28.8,9.4-41.3c5.4-10.7,12.4-20.2,21.2-28.3H459.2c-7.1,19.9-10.7,41.2-10.7,63.9c0,30.4,6.4,58.7,19.1,84.7
			c12.7,26.1,30.2,48.6,52.5,67.5c22.3,19,48.8,33.9,79.7,44.7c30.8,10.8,64.4,16.3,100.6,16.3h135.5l123.6-107.5H700.4
			C682.9,452.7,666.6,450.3,651.6,445.5"/>
		<g>
			<g>
				
					<linearGradient id="SVGID_2_" gradientUnits="userSpaceOnUse" x1="947.9407" y1="-1108.9708" x2="1944.7446" y2="-1108.9708" gradientTransform="matrix(-1 0 0 -1 2419.4407 -750.9611)">
					<stop  offset="3.572550e-03" style="stop-color:#A91F25"/>
					<stop  offset="0.5405" style="stop-color:#D1151C"/>
					<stop  offset="1" style="stop-color:#A91F25"/>
				</linearGradient>
				<path class="st1" d="M993.4,560.3H1121V397.6L993.4,282.8V560.3z M1350.3,148.9v245.7l-262.9-230.1
					c-10.7-9.6-20.2-15.7-28.5-18.4c-5.7-1.9-17-4.1-17-4.1H700.4c-36.2,0-69.8,4.9-100.6,14.7c-30.8,9.8-57.4,23.8-79.7,41.9
					c-18.4,15-33.5,32.4-45.4,52.2H814v0h181.7c6.3,0,12.3,2.3,17,6.4l332.4,294.3c10.3,9.6,19.6,15.7,27.9,18.4
					c8.3,2.7,16.8,4.1,25.3,4.1c9.4,0,18.6-1.5,27.6-4.4c9-2.9,16.8-7.6,23.4-14.1c6.6-6.5,12-14.7,16-24.7
					c4.1-10,6.1-21.9,6.1-35.6V148.9H1350.3z"/>
			</g>
		</g>
	</g>
	<g>
		<g>
			<linearGradient id="SVGID_3_" gradientUnits="userSpaceOnUse" x1="470" y1="697.7814" x2="1450" y2="697.7814">
				<stop  offset="3.572550e-03" style="stop-color:#595C5D"/>
				<stop  offset="0.5423" style="stop-color:#5E6161"/>
				<stop  offset="1" style="stop-color:#595C5D"/>
			</linearGradient>
			<path class="st2" d="M639.1,594c-1.3-1.1-2.4-1.6-4-1.6c-51.7,0-103.5,0.1-155.2-0.1c-3.7,0-6.6,0.7-8.7,3.9
				c-0.5,0.8-1,1.7-1,2.6c-0.1,8.6,0.1,17.3-0.1,25.9c-0.1,3.5,0.7,6,3.3,8.2c1.1,0.9,2,1.4,3.4,1.4c18.3,0,36.6,0,54.9,0
				c2.7,0,2.4-0.3,2.4,2.5c0,52.1,0,104.2-0.1,156.3c0,3.7,0.6,6.5,3.5,8.8c1,0.8,1.9,1.3,3.2,1.3c9.4,0,18.8-0.2,28.2,0.1
				c3.3,0.1,5.8-0.7,7.9-3.4c1-1.3,1.6-2.4,1.6-4.1c0-53,0-106,0-159v-2.5h2.4c17.3,0,34.6-0.1,51.9,0.1c3.5,0,6.2-0.8,8.4-3.6
				c0.8-1,1.3-1.9,1.3-3.2c0-8.5-0.2-16.9,0.1-25.4C642.5,598.7,641.7,596.2,639.1,594z M858.9,667.1c-7.9-31.9-26-55.3-55.6-68.6
				c-20.3-9.1-41.6-10.8-63.2-6.5c-24.8,4.9-44.9,17.8-60,38.6c-13.4,18.5-19.5,39.6-20.3,62.4c-0.4,11.8,0.5,23.4,3.2,34.9
				c5,21.6,15.6,39.9,32.1,54.1c18.7,16.1,40.7,23.3,66.4,23.6c3.1-0.2,7.5-0.4,12-0.9c2.8-0.3,5.7-0.7,8.5-1.4
				c30.9-6.9,53.8-24.7,68.2-53.7c9-18.1,12.3-37.4,11.7-57.6C861.8,683.7,860.9,675.3,858.9,667.1z M813.6,723.8
				c-4.2,13.9-12.1,25-24.9,31.9c-10,5.4-20.7,7.4-32,6.4c-23.5-2-42.7-18.3-49.3-44.4c-4.2-16.7-4.2-33.5,1.6-49.7
				c6.8-18.9,20.2-30.3,39.5-34.1c1.3-0.3,2.6-0.5,3.8-0.6c2.4-0.2,4.8-0.3,7.3-0.5c14.9,0.5,28.5,5,39.5,15.9
				c8.6,8.5,14.1,19,16.3,31.1C818.1,694.5,818,709.3,813.6,723.8z M1051.1,774.8c-21-26.3-42-52.7-63-79c-0.7-0.9-0.9-1.5-0.1-2.5
				c16.7-21,33.4-42.1,50.1-63.1c7.6-9.5,15.1-19.1,22.7-28.6c0.7-0.8,0.9-1.5,0.3-2.5c-0.9-1.6-1.7-3.3-2.3-5
				c-0.5-1.4-1.3-1.8-2.7-1.8c-12.4,0.1-24.9,0.1-37.3,0c-1.5,0-2.5,0.5-3.4,1.7c-22,27.5-44,55-66,82.5c-2,2.5-4,4.9-6,7.4
				c-0.1-0.1-0.3-0.1-0.4-0.2V682c0-26.6-0.1-53.1,0.1-79.7c0-3.6-0.7-6.4-3.5-8.6c-1-0.8-1.9-1.3-3.1-1.3c-9.4,0-18.7,0.2-28.1-0.1
				c-3.5-0.1-6.1,0.7-8.3,3.5c-0.9,1.2-1.4,2.2-1.4,3.7c0,64.5,0.1,128.9-0.1,193.4c0,3.9,0.7,6.9,3.8,9.1c0.8,0.5,1.8,1.1,2.7,1.1
				c9.5,0.1,19.1-0.1,28.6,0.1c3.3,0.1,5.8-0.7,7.9-3.4c0.9-1.2,1.5-2.2,1.5-3.8c0-29.6,0-59.2,0-88.8v-2.4c0.6,0.7,0.9,1,1.1,1.3
				c12.2,15.6,24.5,31.2,36.7,46.8c12.8,16.3,25.5,32.6,38.3,48.8c0.5,0.7,1.5,1.4,2.3,1.4c13.6,0.1,27.2,0.1,40.7,0.1
				c1,0,1.6-0.3,2-1.3c0.8-1.8,1.6-3.6,2.5-5.4c0.5-1,0.4-1.7-0.3-2.5C1061.3,787.6,1056.2,781.2,1051.1,774.8z M1228.2,762.4
				c-1.1-0.9-2.1-1.5-3.6-1.5c-28.1,0-56.3,0-84.4,0c-2.3,0-2.3,0-2.3-2.3c0-13,0-26.1,0-39.1c0-2.2,0-2.2,2.2-2.2
				c23.6,0,47.2-0.1,70.8,0.1c3.7,0,6.4-0.8,8.7-3.8c0.7-0.9,1.1-1.7,1.1-2.9c0-8.7-0.2-17.5,0.1-26.2c0.1-3.3-0.7-5.8-3.2-8
				c-1.2-1-2.2-1.5-3.7-1.5c-24.4,0-48.8,0-73.2,0c-3,0-2.8,0.3-2.8-2.7c0-11.8,0-23.6,0-35.4c0-2.6,0-2.6,2.5-2.6
				c27.1,0,54.2-0.1,81.3,0.1c3.6,0,6.3-0.7,8.5-3.7c0.7-0.9,1.1-1.7,1.1-2.9c0-8.6-0.2-17.3,0.1-25.9c0.1-3.3-0.6-5.7-3.1-7.8
				c-1.3-1.1-2.4-1.7-4.1-1.7c-40.4,0-80.7,0.1-121.1,0c-3.3,0-5.8,0.7-7.9,3.4c-0.9,1.2-1.5,2.2-1.5,3.8c0,32.8,0,65.6,0,98.4
				c0,32.1,0,64.1-0.1,96.2c0,3.1,0.7,5.3,3,7.4c1.4,1.2,2.6,1.8,4.4,1.8c40.2-0.1,80.3-0.1,120.5,0.1c3.7,0,6.5-0.8,8.8-3.9
				c0.7-0.9,1.1-1.7,1.1-2.8c0-8.7-0.2-17.4,0.1-26C1231.6,767.2,1230.9,764.5,1228.2,762.4z M1446.4,593.7c-0.9-1-1.8-1.3-3.1-1.3
				c-9.5,0-19.1,0.2-28.6-0.1c-3.4-0.1-5.9,0.7-8,3.4c-0.9,1.2-1.4,2.1-1.4,3.7c0,42.6,0,85.3,0,127.9v1.9c-0.7-0.4-1-0.8-1.3-1.3
				c-28.3-44.6-56.5-89.2-84.8-133.8c-0.8-1.3-1.6-1.8-3.1-1.8c-12.4,0.1-24.8,0.2-37.2,0c-3.5-0.1-6.1,0.6-8.3,3.5
				c-0.9,1.2-1.4,2.1-1.4,3.6c0,64.5,0.1,129-0.1,193.5c0,3.7,0.7,6.6,3.6,8.9c1,0.8,1.9,1.3,3.2,1.3c9.3,0,18.6-0.2,27.9,0.1
				c3.6,0.1,6.2-0.8,8.4-3.7c0.8-1.1,1.3-2,1.3-3.4c0-42.7,0-85.5,0-128.2v-1.9c0.6,0.4,1,0.9,1.3,1.3c8.9,14,17.7,28.1,26.5,42.1
				c19.4,30.8,38.7,61.5,58.1,92.3c0.6,1,1.3,1.3,2.4,1.3c13.9,0,27.8,0,41.7-0.1c0.8,0,1.8-0.4,2.4-1c1.4-1.2,2.7-2.6,4-3.9V597.3
				C1448.8,596.1,1447.5,595,1446.4,593.7z"/>
		</g>
	</g>
	<g>
		<g>
			<linearGradient id="SVGID_4_" gradientUnits="userSpaceOnUse" x1="575" y1="857.4903" x2="1345" y2="857.4903">
				<stop  offset="3.572550e-03" style="stop-color:#595C5D"/>
				<stop  offset="0.5423" style="stop-color:#5E6161"/>
				<stop  offset="1" style="stop-color:#595C5D"/>
			</linearGradient>
			<path class="st3" d="M621.3,873.6c-0.3-0.8-1.7-1.5-2.4-1.1c-2,0.9-4,1.5-6.2,2c-1.4,0.3-2.8,0.7-4.3,0.8c-3.1,0.2-6.2,0-9.1-0.9
				c-3.2-1-5.9-2.8-8-5.4c-2.4-2.9-3.4-6.3-3.7-10c-0.2-2.6,0.1-5.2,0.9-7.7c1.3-4,3.6-7.2,7.3-9.3c2.4-1.4,5.1-2.2,7.9-2.4
				c0.8-0.1,1.6-0.1,2.3-0.1c0.9,0,1.8,0.2,2.7,0.2c2.1,0,4.2,0.5,6.2,1.2c1.4,0.5,2.8,1,4.2,1.4c0.7,0.2,0.8,0.2,1-0.4
				c1.1-2.5,2.2-5,3.2-7.5c0.4-0.9-0.1-2.2-1-2.5c-1.4-0.5-2.7-1.1-4.1-1.5c-1.8-0.6-3.6-1.1-5.5-1.4c-1.5-0.2-2.9-0.5-4.4-0.5
				c-1.5-0.1-3,0-4.5,0c-2.2,0-4.3,0.3-6.4,0.8c-2,0.4-3.9,1-5.7,1.9c-5.2,2.3-9.4,5.8-12.4,10.7c-1.8,2.9-3,6.1-3.6,9.4
				c-0.4,2-0.5,4.1-0.7,6.1c0,0.3,0,0.6,0.1,0.9c0,0.2,0.1,0.5,0.1,0.7c0.2,1.6,0.2,3.3,0.5,4.9c0.6,3,1.6,5.8,3,8.5
				c1.9,3.5,4.4,6.5,7.7,8.9c4.9,3.6,10.4,5.3,16.4,5.6c1.9,0.1,3.8,0,5.7-0.1c2.2-0.2,4.3-0.6,6.5-1.2c3.1-0.8,6.1-1.9,9-3.2
				c0.2-0.1,0.5-0.3,0.7-0.4c-0.5-1.1-0.9-2.2-1.3-3.3C622.6,876.9,622,875.2,621.3,873.6z M711.8,828.8c-2.7,0-5.4,0-8.1,0
				c-1.2,0-2.1,0.9-2.1,2.1c0,11.4,0,22.7,0,34.1c0,0.2,0,0.4-0.1,0.6c-0.1,0-0.1,0-0.2,0.1c-0.2-0.2-0.4-0.5-0.5-0.7
				c-1.6-2.4-3.2-4.8-4.7-7.3c-3.8-5.9-7.7-11.7-11.5-17.6c-2.3-3.5-4.6-7-6.8-10.5c-0.3-0.5-0.6-0.8-1.2-0.8c-3.7,0-7.3,0-11,0
				c-0.2,0-0.5,0-0.7,0.1c-0.6,0.5-1.2,1-1.2,2c0,6.2,0,12.5,0,18.7c0,11.4,0,22.8,0,34.2c0,1.2,0.9,2.1,2.1,2.1c2.7,0,5.4,0,8.1,0
				c0.5,0,0.9-0.2,1.3-0.5c0.5-0.5,0.7-1,0.7-1.7c0-10.1,0-20.1,0-30.2c0-1.3,0-2.6,0-3.8c0-0.2,0-0.5,0.1-0.7c0.1,0,0.1,0,0.2-0.1
				c0.2,0.2,0.4,0.5,0.6,0.7c3.6,5.5,7.2,11.1,10.7,16.6c4.1,6.3,8.2,12.6,12.2,18.9c0.3,0.5,0.7,0.7,1.3,0.7c3.6,0,7.2,0,10.8,0
				c1.2,0,2.1-0.8,2.1-2.1c0-17.7,0-35.3,0-53C713.9,829.6,713,828.8,711.8,828.8z M955.5,855.4c3.4-4.2,6.9-8.5,10.3-12.7
				c2.9-3.6,5.9-7.2,8.8-10.8c0.9-1.1,0.9-1.1,0.2-2.5c-0.2-0.4-0.5-0.6-1-0.6c-3.4,0-6.8,0-10.2,0c-0.5,0-0.8,0.2-1.1,0.6
				c-0.7,0.9-1.4,1.7-2.1,2.6c-3.3,4-6.5,7.9-9.8,11.9c-2.4,3-4.9,5.9-7.3,8.9c-0.2,0.2-0.4,0.4-0.6,0.6c-0.1,0-0.1-0.1-0.2-0.1
				c0-0.2,0-0.4,0-0.6c0-1.8,0-3.7,0-5.5c0-5.4,0-10.9,0-16.3c0-1.2-0.9-2-2-2.1c-2.8,0-5.6,0-8.3,0c-0.3,0-0.6,0-0.8,0.2
				c-0.7,0.5-1.2,1.1-1.2,2.1c0,17.5,0,34.9,0,52.4c0,0.2,0,0.3,0,0.5c0,0.4,0.1,0.7,0.4,1c0.2,0.2,0.4,0.4,0.6,0.6
				c0.3,0.3,0.6,0.4,1,0.4c2.8,0,5.7,0,8.5,0c0.2,0,0.5,0,0.7-0.2c0.7-0.6,1.2-1.2,1.2-2.2c-0.1-7.7,0-15.3,0-23c0-0.3,0-0.6,0-0.9
				c0.1,0,0.1-0.1,0.2-0.1c0.2,0.2,0.4,0.4,0.6,0.6c2.4,2.9,4.8,5.9,7.1,8.8c4.4,5.4,8.7,10.8,13.1,16.3c0.4,0.5,0.8,0.7,1.4,0.7
				c3.4,0,6.9,0,10.3,0c0.1,0,0.3,0,0.4,0c0.3,0,0.5-0.1,0.7-0.4c0.3-0.6,0.5-1.1,0.8-1.7c-7.4-9.1-14.9-18.2-22.4-27.3
				C955,856.1,955.2,855.8,955.5,855.4z M798.3,829.4c-0.4-0.4-0.9-0.6-1.5-0.6c-7.3,0-14.6,0-21.9,0c-6.6,0-13.1,0-19.7,0
				c-0.8,0-1.7,0-2.5,0c-0.9,0-1.8,1-1.8,1.8c0,2.5,0,5.1,0,7.6c0,0.3,0.1,0.6,0.2,0.8c0.5,0.6,1.1,1.1,2,1.1c4.7-0.1,9.5,0,14.2,0
				c1.5,0,1.5,0,1.5,1.5c0,14,0,28,0,42c0,0.3,0,0.5,0,0.8c0.1,0.7,1,1.7,1.7,1.7c2.9,0,5.8,0,8.8,0c0.2,0,0.5-0.1,0.6-0.2
				c0.7-0.6,1.2-1.1,1.1-2.2c0-14.1,0-28.2,0-42.3c0-1.3,0-1.3,1.3-1.3c4.8,0,9.6,0,14.3,0c1.3,0,2.1-0.8,2.1-2.1c0-2.4,0-4.8,0-7.2
				C798.9,830.2,798.7,829.8,798.3,829.4z M886.5,842.2c-1.8-3.4-4.2-6.3-7.4-8.6c-4-3-8.6-4.7-13.6-5.3c-0.3,0-0.5-0.2-0.8-0.3
				h-5.7c-0.2,0.1-0.5,0.3-0.7,0.3c-2.1,0.2-4.1,0.7-6.1,1.3c-3.6,1.2-6.7,3-9.5,5.6c-5.5,5.1-8.4,11.6-9.1,19
				c-0.2,2.7-0.2,5.5,0.2,8.2c0.4,3.2,1.3,6.2,2.7,9.1c1.8,3.6,4.3,6.8,7.5,9.3c4.4,3.4,9.3,5.2,14.8,5.7c4.6,0.4,9.2-0.1,13.6-1.9
				c4.6-1.8,8.4-4.6,11.4-8.6c3.4-4.5,5.4-9.5,5.9-15.1c0.4-3.8,0.3-7.5-0.5-11.3C888.7,847.1,887.8,844.5,886.5,842.2z M876,865.8
				c-1.9,4.3-5,7.3-9.6,8.5c-5.2,1.4-9.9,0.4-14.1-2.9c-2.4-1.9-4-4.5-5-7.3c-0.7-2-1-4.1-1.1-6.2c-0.1-2.6,0-5.2,0.8-7.7
				c1.5-4.7,4.4-8,9.2-9.6c2.1-0.7,4.2-1.1,6.3-0.9c5,0.4,9.2,2.4,12.1,6.7c1.6,2.4,2.6,5,2.8,7.9c0.1,1.1,0.2,2.1,0.2,3.2
				C877.5,860.3,877.2,863.2,876,865.8z M1248.6,830.5c0-0.9-0.9-1.7-1.7-1.7c-2.9,0-5.8,0-8.8,0c-0.2,0-0.5,0-0.6,0.1
				c-0.6,0.5-1.2,1-1.1,2c0,8.8,0,17.6,0,26.4c0,8.8,0,17.7,0,26.5c0,1.2,0.9,2.1,2.1,2.1c2.7,0,5.4,0,8.2,0c0.5,0,0.8-0.1,1.2-0.5
				c0.6-0.5,0.8-1.1,0.8-1.8c0-16.7,0-33.5,0-50.2C1248.6,832.5,1248.6,831.5,1248.6,830.5z M1344.8,852.8
				c-0.5-5.8-2.7-10.9-6.4-15.3c-3.2-3.8-7.1-6.4-11.8-7.9c-1.9-0.7-3.9-1.1-6-1.3c-0.3,0-0.6-0.2-0.9-0.3h-5.7
				c-0.3,0.1-0.6,0.3-0.8,0.3c-0.7,0.1-1.4,0.2-2.1,0.3c-2.9,0.5-5.6,1.5-8.1,2.9c-4.8,2.6-8.4,6.4-11,11.2
				c-1.6,3.1-2.6,6.3-3.1,9.7c-0.3,2.1-0.4,4.2-0.3,6.3c0.2,3,0.6,6,1.5,8.9c1.1,3.6,2.9,6.8,5.4,9.6c4.9,5.6,11.2,8.5,18.6,9.2
				c2.3,0.2,4.7,0.1,7-0.2c2.9-0.4,5.7-1.2,8.4-2.6c4.8-2.4,8.5-5.9,11.3-10.4c1.3-2.1,2.2-4.4,2.9-6.7c0.5-1.9,1-3.8,1.1-5.7
				c0-0.3,0.1-0.5,0.2-0.8v-6.3C1344.9,853.4,1344.9,853.1,1344.8,852.8z M1332.2,862.3c-0.9,4.2-2.9,7.8-6.5,10.2
				c-1.7,1.1-3.6,1.8-5.6,2.2c-2.1,0.4-4.2,0.3-6.3-0.1c-2.5-0.5-4.8-1.7-6.7-3.4c-2.3-2-3.8-4.5-4.8-7.3c-0.9-2.7-1.2-5.4-1.1-8.2
				c0.1-2.3,0.4-4.5,1.3-6.6c1.8-4.5,5-7.5,9.8-8.8c2.6-0.7,5.2-0.8,7.8-0.2c5.4,1.2,9.2,4.3,11.3,9.5c0.9,2.2,1.4,4.9,1.3,8.1
				C1332.7,859.1,1332.5,860.7,1332.2,862.3z M1143.3,830.6c0-0.8-0.9-1.8-1.7-1.8c-3,0-6,0-8.9,0c-0.3,0-0.6,0.2-0.9,0.4
				c-0.7,0.5-0.9,1.1-0.9,2c0,11.1,0,22.2,0,33.3c0,0.3,0,0.6-0.1,1c-0.1,0-0.2,0.1-0.2,0.1c-0.1-0.2-0.3-0.4-0.4-0.5
				c-0.9-1.4-1.8-2.8-2.7-4.1c-3.7-5.6-7.3-11.3-11-16.9c-3.1-4.8-6.3-9.6-9.4-14.5c-0.3-0.5-0.7-0.7-1.3-0.7c-3.6,0-7.2,0-10.8,0
				c-0.6,0-1,0.2-1.4,0.6c-0.5,0.4-0.6,0.9-0.6,1.6c0,17.6,0,35.2,0,52.8c0,0.2,0,0.3,0,0.5c0,0.8,1,1.7,1.7,1.7c2.9,0,5.8,0,8.7,0
				c0.2,0,0.5,0,0.6-0.1c0.6-0.5,1.2-1,1.2-2c0-11.1,0-22.3,0-33.4c0-0.3,0-0.6,0-0.9c0-0.2,0.1-0.3,0.3-0.6c0.6,1,1.2,1.8,1.7,2.6
				c3.3,5.1,6.6,10.2,9.9,15.3c4,6.1,8,12.3,11.9,18.4c0.3,0.5,0.7,0.8,1.3,0.7c3.6,0,7.2,0,10.8,0c0.6,0,1-0.2,1.4-0.6
				c0.6-0.5,0.7-1.1,0.7-1.8c0-17.5,0-35,0-52.5C1143.3,830.9,1143.3,830.7,1143.3,830.6z M1189.8,873.1c-3.9,0-6.9,3.2-7,7
				c0,3.8,3.4,7.1,7,6.9c3.5,0.2,6.9-3.1,6.9-6.9C1196.8,876.6,1193.9,873.1,1189.8,873.1z M1052.3,875.6c-0.5-0.7-1.1-1.2-2.1-1
				c-0.2,0-0.4,0-0.7,0c-7.3,0-14.5,0-21.8,0c-0.2,0-0.4,0-0.7,0c-0.4,0-0.6-0.2-0.6-0.6c0-0.2,0-0.4,0-0.7c0-3.1,0-6.2,0-9.4
				c0-1.4,0-1.4,1.3-1.4c6.5,0,13,0,19.4,0c0.2,0,0.4,0,0.7,0c0.8,0,1.7-0.9,1.7-1.7c0-2.6,0-5.2,0-7.8c0-0.2,0-0.5-0.2-0.6
				c-0.6-0.7-1.2-1.3-2.3-1.2c-6.4,0.1-12.8,0-19.3,0c-0.3,0-0.6,0-0.8,0c-0.4,0-0.6-0.2-0.6-0.6c0-0.2,0-0.3,0-0.5
				c0-2.9,0-5.8,0-8.8c0-1.2,0-1.3,1.2-1.3c7.5,0,15,0,22.4,0c0.2,0,0.4,0,0.7,0c0.8,0,1.7-1,1.7-1.8c0-2.5,0-5.1,0-7.6
				c0-0.2,0-0.5-0.2-0.7c-0.5-0.7-1.1-1.2-2.2-1.2c-11.2,0-22.4,0-33.5,0c-0.3,0-0.5,0-0.7,0c-0.2,0-0.5,0.1-0.6,0.2
				c-0.7,0.5-1.1,1.1-1.1,2.1c0,8.8,0,17.5,0,26.3c0,8.7,0,17.5,0,26.2c0,0.3,0,0.5,0,0.8c0,0.2,0.1,0.4,0.2,0.5
				c0.5,0.6,1.1,1.1,2,1c8.9,0,17.8,0,26.8,0c2.5,0,4.9,0,7.4,0c0.9,0,1.9-0.9,1.9-1.8c0-2.6,0-5.2,0-7.8
				C1052.6,876.1,1052.5,875.8,1052.3,875.6z"/>
		</g>
	</g>
</g>
</svg>
