<?xml version="1.0" encoding="utf-8"?>
<!-- Generator: Adobe Illustrator 28.0.0, SVG Export Plug-In . SVG Version: 6.00 Build 0)  -->
<svg version="1.1" id="Layer_1" xmlns="http://www.w3.org/2000/svg" xmlns:xlink="http://www.w3.org/1999/xlink" x="0px" y="0px"
	 viewBox="0 0 512 512" style="enable-background:new 0 0 512 512;" xml:space="preserve">
<style type="text/css">
	.st0{fill:#008CD6;}
	.st1{fill-rule:evenodd;clip-rule:evenodd;}
</style>
<g>
	<path d="M84.87,218.1c0.59-29.07-15.87-54.4-24.45-60.49c-0.04-0.04-0.8-0.45-0.74,0.69c0,0.02-0.02,0.02-0.02,0.04
		c-0.88,54.91-29.11,69.71-44.43,89.84c-34.06,44.75-5.64,95.81,31.18,105.48c0.63,0.16,2.33,0.67,5.56,1.33
		c1.68,0.35,2.17-1.08,0.94-3.21c-4.4-7.65-12.23-20.58-13.78-37.18C35.6,276.05,84.18,251.93,84.87,218.1z"/>
	<path class="st0" d="M103.43,236.72c-0.29-0.22-0.7-0.2-0.74,0.18c-0.78,6.99-8.01,21.48-17.52,35.02
		c-32.02,45.67-15.89,66.39-3.37,80.76c2.31,2.66,3.46,2.08,4.68,0.18c1.14-1.8,2.86-4.09,10.26-7.6
		c1.15-0.55,29.11-15.39,32.14-49.18C131.79,263.38,110.83,242.71,103.43,236.72z"/>
	<path d="M269.72,228.4v120.18h-25.78v-48.55h-49.54v48.55h-26.43V228.4h26.43v48.55h49.54V228.4H269.72z"/>
	<path d="M388.91,228.4v23.77h-12.27h-24.74v96.4h-26.52v-96.4h-24.08h-12.27V228.4H388.91z"/>
	<path class="st1" d="M482.79,348.7l-30.3-41.82l-30.07,41.64l-29.4,0.04l44.57-61.35l-42.07-58.81h29.38l87.15,120.3H482.79z"/>
	<path class="st0" d="M460.73,255.29l14.54,20.2l34.45-47.12H480.5L460.73,255.29z"/>
</g>
</svg>
